<svg id="svg" xmlns="http://www.w3.org/2000/svg" xmlns:xlink="http://www.w3.org/1999/xlink" width="400" height="400" viewBox="0, 0, 400,400"><g id="svgg"><path id="path0" d="M185.157 9.180 C 184.143 10.361,181.530 13.438,179.352 16.016 C 177.173 18.594,175.198 20.879,174.963 21.094 C 174.100 21.882,161.886 37.292,157.316 43.359 C 143.919 61.143,127.725 88.262,120.928 104.297 C 120.199 106.016,119.009 108.828,118.283 110.547 C 114.648 119.152,110.318 132.813,111.226 132.813 C 111.761 132.813,113.818 130.615,115.797 127.930 C 120.325 121.786,130.660 111.679,138.217 106.005 C 143.223 102.246,144.488 100.772,147.518 95.163 C 158.439 74.947,187.477 33.594,190.751 33.594 C 193.296 33.594,225.191 63.745,237.443 77.734 C 271.570 116.699,289.844 159.662,289.844 200.933 C 289.844 234.279,262.513 269.046,229.688 277.458 C 182.618 289.520,139.508 265.285,125.254 218.750 C 124.945 217.741,124.795 217.756,124.180 218.851 C 123.065 220.838,129.050 241.844,133.630 252.018 C 136.470 258.328,143.605 272.874,145.096 275.395 C 153.700 289.945,154.782 290.843,170.192 296.217 C 238.303 319.969,309.106 269.081,308.955 196.484 C 308.824 133.455,268.444 67.672,195.634 11.874 C 188.475 6.388,187.720 6.193,185.157 9.180 M178.719 98.865 C 153.236 103.159,133.013 114.829,114.404 135.980 C 104.840 146.851,96.490 163.793,92.400 180.629 C 90.639 187.880,90.437 216.798,92.088 225.391 C 96.066 246.089,100.551 260.083,109.240 278.906 C 125.137 313.348,162.043 355.471,205.642 388.938 C 212.198 393.971,210.979 394.303,218.808 385.352 C 252.729 346.572,276.003 308.335,287.584 272.359 C 290.055 264.683,289.322 264.389,284.437 271.097 C 278.473 279.287,265.939 291.106,257.788 296.226 C 256.701 296.909,254.943 299.177,253.882 301.266 C 248.408 312.044,229.641 341.731,226.530 344.531 C 226.292 344.746,225.246 346.152,224.207 347.656 C 223.167 349.160,221.954 350.778,221.510 351.252 C 221.066 351.726,218.242 355.319,215.234 359.237 C 208.627 367.842,210.630 367.938,199.533 358.487 C 127.313 296.983,93.502 218.324,117.304 167.188 C 148.741 99.652,250.520 105.025,272.692 175.391 C 273.640 178.398,274.767 181.211,275.197 181.641 C 276.283 182.725,275.449 174.805,274.004 170.313 C 273.383 168.379,272.321 165.039,271.644 162.891 C 268.484 152.850,266.886 148.900,260.900 136.328 C 257.632 129.463,250.271 116.696,246.875 112.001 C 245.147 109.612,238.061 106.292,225.391 101.936 C 214.131 98.065,192.081 96.614,178.719 98.865 M190.234 134.451 C 145.882 143.334,122.531 188.628,142.020 227.975 C 169.708 283.875,251.049 273.936,265.198 212.924 C 275.258 169.546,233.461 125.793,190.234 134.451 M194.035 154.744 C 198.012 157.872,195.589 164.844,190.526 164.844 C 188.473 164.844,187.218 165.238,181.638 167.633 C 171.750 171.878,164.873 182.718,164.852 194.090 C 164.842 199.683,162.945 202.344,158.969 202.344 C 154.702 202.344,153.596 200.236,153.727 192.355 C 154.033 174.006,167.657 157.370,185.156 153.978 C 190.660 152.911,191.833 153.012,194.035 154.744 " stroke="none" fill="#000000" fill-rule="evenodd"></path></g></svg>